<svg xmlns="http://www.w3.org/2000/svg" version="1.1" xmlns:xlink="http://www.w3.org/1999/xlink" xmlns:svgjs="http://svgjs.com/svgjs" width="1980" height="350" preserveAspectRatio="none" viewBox="0 0 1980 350">
    <g mask="url(&quot;#SvgjsMask1333&quot;)" fill="none">
        <g mask="url(&quot;#SvgjsMask1335&quot;)">
            <path d="M973 203L959 189L959 175L959 161L959 147L959 133M973 273L959 259L959 245L959 231M987 357L987 343M959 77L973 63M973 315L987 301M987 371L987 357L973 343L973 329L973 315L973 301L973 287L973 273L973 259L973 245L973 231L973 217L973 203L973 189L973 175L973 161L973 147L973 133L973 119L973 105L973 91L959 77L959 63" stroke="url(#SvgjsLinearGradient1334)" stroke-width="2.33"></path>
            <path d="M955.5 63 a3.5 3.5 0 1 0 7 0 a3.5 3.5 0 1 0 -7 0zM955.5 133 a3.5 3.5 0 1 0 7 0 a3.5 3.5 0 1 0 -7 0zM955.5 231 a3.5 3.5 0 1 0 7 0 a3.5 3.5 0 1 0 -7 0zM983.5 343 a3.5 3.5 0 1 0 7 0 a3.5 3.5 0 1 0 -7 0zM969.5 63 a3.5 3.5 0 1 0 7 0 a3.5 3.5 0 1 0 -7 0zM983.5 301 a3.5 3.5 0 1 0 7 0 a3.5 3.5 0 1 0 -7 0z" fill="url(#SvgjsLinearGradient1334)"></path>
            <path d="M987 119L987 105L987 91L987 77M987 147L1001 133M1001 301L1001 287M987 161L1001 147L1015 133L1015 119M987 175L1001 161L1015 147L1029 133M1015 91L1001 77M1001 371L1001 357L1001 343L1001 329L1001 315L1001 301L987 287L987 273L987 259L987 245L987 231L987 217L987 203L987 189L987 175L987 161L987 147L987 133L987 119L1001 105L1015 91L1015 77L1015 63L1015 49L1015 35" stroke="url(#SvgjsLinearGradient1334)" stroke-width="2.33"></path>
            <path d="M1011.5 35 a3.5 3.5 0 1 0 7 0 a3.5 3.5 0 1 0 -7 0zM983.5 77 a3.5 3.5 0 1 0 7 0 a3.5 3.5 0 1 0 -7 0zM997.5 133 a3.5 3.5 0 1 0 7 0 a3.5 3.5 0 1 0 -7 0zM997.5 287 a3.5 3.5 0 1 0 7 0 a3.5 3.5 0 1 0 -7 0zM1011.5 119 a3.5 3.5 0 1 0 7 0 a3.5 3.5 0 1 0 -7 0zM1025.5 133 a3.5 3.5 0 1 0 7 0 a3.5 3.5 0 1 0 -7 0zM997.5 77 a3.5 3.5 0 1 0 7 0 a3.5 3.5 0 1 0 -7 0z" fill="url(#SvgjsLinearGradient1334)"></path>
            <path d="M931 203L945 189M945 315L945 301M931 217L917 203L917 189M973 371L973 357L959 343L959 329L945 315L931 301L931 287L931 273L931 259L931 245L931 231L931 217L931 203L931 189" stroke="url(#SvgjsLinearGradient1334)" stroke-width="2.33"></path>
            <path d="M927.5 189 a3.5 3.5 0 1 0 7 0 a3.5 3.5 0 1 0 -7 0zM941.5 189 a3.5 3.5 0 1 0 7 0 a3.5 3.5 0 1 0 -7 0zM941.5 301 a3.5 3.5 0 1 0 7 0 a3.5 3.5 0 1 0 -7 0zM913.5 189 a3.5 3.5 0 1 0 7 0 a3.5 3.5 0 1 0 -7 0z" fill="url(#SvgjsLinearGradient1334)"></path>
            <path d="M1001 259L1015 245L1015 231L1015 217L1029 203M1001 203L1015 189L1015 175L1015 161M1015 287L1015 273L1015 259M1015 371L1015 357L1015 343L1015 329L1015 315L1015 301L1015 287L1001 273L1001 259L1001 245L1001 231L1001 217L1001 203L1001 189" stroke="url(#SvgjsLinearGradient1334)" stroke-width="2.33"></path>
            <path d="M997.5 189 a3.5 3.5 0 1 0 7 0 a3.5 3.5 0 1 0 -7 0zM1025.5 203 a3.5 3.5 0 1 0 7 0 a3.5 3.5 0 1 0 -7 0zM1011.5 161 a3.5 3.5 0 1 0 7 0 a3.5 3.5 0 1 0 -7 0zM1011.5 259 a3.5 3.5 0 1 0 7 0 a3.5 3.5 0 1 0 -7 0z" fill="url(#SvgjsLinearGradient1334)"></path>
            <path d="M903 189L889 175L889 161M917 231L917 217M917 301L917 287L917 273M903 273L903 259L903 245L903 231L889 217L889 203L889 189L875 175M903 175L917 161L917 147L917 133L931 119L931 105M959 371L945 357L945 343L945 329L931 315L917 301L903 287L903 273L917 259L917 245L917 231L903 217L903 203L903 189L903 175L903 161L903 147L903 133L917 119L917 105L917 91L917 77L917 63" stroke="url(#SvgjsLinearGradient1334)" stroke-width="2.33"></path>
            <path d="M913.5 63 a3.5 3.5 0 1 0 7 0 a3.5 3.5 0 1 0 -7 0zM885.5 161 a3.5 3.5 0 1 0 7 0 a3.5 3.5 0 1 0 -7 0zM913.5 217 a3.5 3.5 0 1 0 7 0 a3.5 3.5 0 1 0 -7 0zM913.5 273 a3.5 3.5 0 1 0 7 0 a3.5 3.5 0 1 0 -7 0zM871.5 175 a3.5 3.5 0 1 0 7 0 a3.5 3.5 0 1 0 -7 0zM927.5 105 a3.5 3.5 0 1 0 7 0 a3.5 3.5 0 1 0 -7 0z" fill="url(#SvgjsLinearGradient1334)"></path>
            <path d="M1029 371L1029 357L1029 343L1029 329L1029 315L1029 301" stroke="url(#SvgjsLinearGradient1334)" stroke-width="2.33"></path>
            <path d="M1025.5 301 a3.5 3.5 0 1 0 7 0 a3.5 3.5 0 1 0 -7 0z" fill="url(#SvgjsLinearGradient1334)"></path>
            <path d="M1043 287L1029 273L1029 259L1029 245L1029 231M1043 273L1057 259L1057 245M1043 371L1043 357L1043 343L1043 329L1043 315L1043 301L1043 287L1043 273L1043 259" stroke="url(#SvgjsLinearGradient1334)" stroke-width="2.33"></path>
            <path d="M1039.5 259 a3.5 3.5 0 1 0 7 0 a3.5 3.5 0 1 0 -7 0zM1025.5 231 a3.5 3.5 0 1 0 7 0 a3.5 3.5 0 1 0 -7 0zM1053.5 245 a3.5 3.5 0 1 0 7 0 a3.5 3.5 0 1 0 -7 0z" fill="url(#SvgjsLinearGradient1334)"></path>
            <path d="M861 245L875 231L875 217L875 203L875 189M861 147L875 133L875 119M875 273L875 259L889 245L889 231M861 161L875 147L889 133L889 119M931 371L931 357L931 343L931 329L917 315L903 301L889 287L875 273L861 259L861 245L861 231L861 217L861 203L861 189L861 175L861 161L861 147L861 133" stroke="url(#SvgjsLinearGradient1334)" stroke-width="2.33"></path>
            <path d="M857.5 133 a3.5 3.5 0 1 0 7 0 a3.5 3.5 0 1 0 -7 0zM871.5 189 a3.5 3.5 0 1 0 7 0 a3.5 3.5 0 1 0 -7 0zM871.5 119 a3.5 3.5 0 1 0 7 0 a3.5 3.5 0 1 0 -7 0zM885.5 231 a3.5 3.5 0 1 0 7 0 a3.5 3.5 0 1 0 -7 0zM885.5 119 a3.5 3.5 0 1 0 7 0 a3.5 3.5 0 1 0 -7 0z" fill="url(#SvgjsLinearGradient1334)"></path>
            <path d="M1057 371L1057 357L1057 343L1057 329L1057 315L1057 301" stroke="url(#SvgjsLinearGradient1334)" stroke-width="2.33"></path>
            <path d="M1053.5 301 a3.5 3.5 0 1 0 7 0 a3.5 3.5 0 1 0 -7 0z" fill="url(#SvgjsLinearGradient1334)"></path>
            <path d="M917 371L917 357L917 343L917 329L903 315" stroke="url(#SvgjsLinearGradient1334)" stroke-width="2.33"></path>
            <path d="M899.5 315 a3.5 3.5 0 1 0 7 0 a3.5 3.5 0 1 0 -7 0z" fill="url(#SvgjsLinearGradient1334)"></path>
            <path d="M1071 301L1085 287L1085 273L1085 259L1085 245M1071 287L1057 273M1071 245L1071 231L1071 217L1071 203M1071 371L1071 357L1071 343L1071 329L1071 315L1071 301L1071 287L1071 273L1071 259L1071 245L1085 231" stroke="url(#SvgjsLinearGradient1334)" stroke-width="2.33"></path>
            <path d="M1081.5 231 a3.5 3.5 0 1 0 7 0 a3.5 3.5 0 1 0 -7 0zM1081.5 245 a3.5 3.5 0 1 0 7 0 a3.5 3.5 0 1 0 -7 0zM1053.5 273 a3.5 3.5 0 1 0 7 0 a3.5 3.5 0 1 0 -7 0zM1067.5 203 a3.5 3.5 0 1 0 7 0 a3.5 3.5 0 1 0 -7 0z" fill="url(#SvgjsLinearGradient1334)"></path>
            <path d="M847 133L833 119L819 105L819 91M847 147L833 133M847 119L847 105L847 91L847 77M847 217L833 203L833 189L833 175L833 161M903 343L889 329M903 371L903 357L903 343L903 329L889 315L889 301L875 287L861 273L847 259L847 245L847 231L847 217L847 203L847 189L847 175L847 161L847 147L847 133L847 119L833 105L833 91L833 77" stroke="url(#SvgjsLinearGradient1334)" stroke-width="2.33"></path>
            <path d="M829.5 77 a3.5 3.5 0 1 0 7 0 a3.5 3.5 0 1 0 -7 0zM815.5 91 a3.5 3.5 0 1 0 7 0 a3.5 3.5 0 1 0 -7 0zM829.5 133 a3.5 3.5 0 1 0 7 0 a3.5 3.5 0 1 0 -7 0zM843.5 77 a3.5 3.5 0 1 0 7 0 a3.5 3.5 0 1 0 -7 0zM829.5 161 a3.5 3.5 0 1 0 7 0 a3.5 3.5 0 1 0 -7 0zM885.5 329 a3.5 3.5 0 1 0 7 0 a3.5 3.5 0 1 0 -7 0z" fill="url(#SvgjsLinearGradient1334)"></path>
            <path d="M1085 371L1085 357L1085 343L1085 329L1085 315" stroke="url(#SvgjsLinearGradient1334)" stroke-width="2.33"></path>
            <path d="M1081.5 315 a3.5 3.5 0 1 0 7 0 a3.5 3.5 0 1 0 -7 0z" fill="url(#SvgjsLinearGradient1334)"></path>
            <path d="M1099 217L1085 203L1085 189L1085 175L1085 161M1099 231L1113 217L1113 203M1099 189L1113 175L1113 161L1113 147L1099 133L1099 119M1099 245L1113 231M1099 371L1099 357L1099 343L1099 329L1099 315L1099 301L1099 287L1099 273L1099 259L1099 245L1099 231L1099 217L1099 203L1099 189L1099 175L1099 161" stroke="url(#SvgjsLinearGradient1334)" stroke-width="2.33"></path>
            <path d="M1095.5 161 a3.5 3.5 0 1 0 7 0 a3.5 3.5 0 1 0 -7 0zM1081.5 161 a3.5 3.5 0 1 0 7 0 a3.5 3.5 0 1 0 -7 0zM1109.5 203 a3.5 3.5 0 1 0 7 0 a3.5 3.5 0 1 0 -7 0zM1095.5 119 a3.5 3.5 0 1 0 7 0 a3.5 3.5 0 1 0 -7 0zM1109.5 231 a3.5 3.5 0 1 0 7 0 a3.5 3.5 0 1 0 -7 0z" fill="url(#SvgjsLinearGradient1334)"></path>
            <path d="M875 315L861 301M875 371L875 357L875 343L875 329L875 315L875 301L861 287L847 273L833 259L833 245L833 231" stroke="url(#SvgjsLinearGradient1334)" stroke-width="2.33"></path>
            <path d="M829.5 231 a3.5 3.5 0 1 0 7 0 a3.5 3.5 0 1 0 -7 0zM857.5 301 a3.5 3.5 0 1 0 7 0 a3.5 3.5 0 1 0 -7 0z" fill="url(#SvgjsLinearGradient1334)"></path>
            <path d="M1127 245L1141 231L1141 217L1141 203L1141 189M1127 161L1141 147M1113 273L1113 259L1113 245M1127 175L1141 161M1113 371L1113 357L1113 343L1113 329L1113 315L1113 301L1113 287L1113 273L1127 259L1127 245L1127 231L1127 217L1127 203L1127 189L1127 175L1127 161L1127 147L1127 133L1127 119" stroke="url(#SvgjsLinearGradient1334)" stroke-width="2.33"></path>
            <path d="M1123.5 119 a3.5 3.5 0 1 0 7 0 a3.5 3.5 0 1 0 -7 0zM1137.5 189 a3.5 3.5 0 1 0 7 0 a3.5 3.5 0 1 0 -7 0zM1137.5 147 a3.5 3.5 0 1 0 7 0 a3.5 3.5 0 1 0 -7 0zM1109.5 245 a3.5 3.5 0 1 0 7 0 a3.5 3.5 0 1 0 -7 0zM1137.5 161 a3.5 3.5 0 1 0 7 0 a3.5 3.5 0 1 0 -7 0z" fill="url(#SvgjsLinearGradient1334)"></path>
            <path d="M861 329L861 315M861 371L861 357L861 343L861 329L847 315L847 301L847 287L833 273L819 259L819 245" stroke="url(#SvgjsLinearGradient1334)" stroke-width="2.33"></path>
            <path d="M815.5 245 a3.5 3.5 0 1 0 7 0 a3.5 3.5 0 1 0 -7 0zM857.5 315 a3.5 3.5 0 1 0 7 0 a3.5 3.5 0 1 0 -7 0z" fill="url(#SvgjsLinearGradient1334)"></path>
            <path d="M1155 203L1169 189L1169 175L1169 161L1169 147M1155 217L1169 203L1183 189M1141 133L1155 119L1155 105M1155 231L1169 217L1183 203M1155 147L1155 133M1127 371L1127 357L1127 343L1127 329L1127 315L1127 301L1127 287L1127 273L1141 259L1155 245L1155 231L1155 217L1155 203L1155 189L1155 175L1155 161L1155 147L1141 133L1141 119L1141 105" stroke="url(#SvgjsLinearGradient1334)" stroke-width="2.33"></path>
            <path d="M1137.5 105 a3.5 3.5 0 1 0 7 0 a3.5 3.5 0 1 0 -7 0zM1165.5 147 a3.5 3.5 0 1 0 7 0 a3.5 3.5 0 1 0 -7 0zM1179.5 189 a3.5 3.5 0 1 0 7 0 a3.5 3.5 0 1 0 -7 0zM1151.5 105 a3.5 3.5 0 1 0 7 0 a3.5 3.5 0 1 0 -7 0zM1179.5 203 a3.5 3.5 0 1 0 7 0 a3.5 3.5 0 1 0 -7 0zM1151.5 133 a3.5 3.5 0 1 0 7 0 a3.5 3.5 0 1 0 -7 0z" fill="url(#SvgjsLinearGradient1334)"></path>
            <path d="M847 343L847 329M847 371L847 357L847 343L833 329L833 315L833 301L833 287L819 273" stroke="url(#SvgjsLinearGradient1334)" stroke-width="2.33"></path>
            <path d="M815.5 273 a3.5 3.5 0 1 0 7 0 a3.5 3.5 0 1 0 -7 0zM843.5 329 a3.5 3.5 0 1 0 7 0 a3.5 3.5 0 1 0 -7 0z" fill="url(#SvgjsLinearGradient1334)"></path>
            <path d="M1141 371L1141 357L1141 343L1141 329L1141 315L1141 301L1141 287L1141 273L1155 259L1169 245" stroke="url(#SvgjsLinearGradient1334)" stroke-width="2.33"></path>
            <path d="M1165.5 245 a3.5 3.5 0 1 0 7 0 a3.5 3.5 0 1 0 -7 0z" fill="url(#SvgjsLinearGradient1334)"></path>
            <path d="M819 301L805 287M833 371L833 357L833 343L819 329L819 315L819 301L819 287L805 273L805 259L805 245L805 231" stroke="url(#SvgjsLinearGradient1334)" stroke-width="2.33"></path>
            <path d="M801.5 231 a3.5 3.5 0 1 0 7 0 a3.5 3.5 0 1 0 -7 0zM801.5 287 a3.5 3.5 0 1 0 7 0 a3.5 3.5 0 1 0 -7 0z" fill="url(#SvgjsLinearGradient1334)"></path>
            <path d="M1183 245L1183 231M1155 343L1169 329L1169 315L1183 301M1169 273L1183 259M1155 371L1155 357L1155 343L1155 329L1155 315L1155 301L1155 287L1169 273L1169 259L1183 245L1197 231" stroke="url(#SvgjsLinearGradient1334)" stroke-width="2.33"></path>
            <path d="M1193.5 231 a3.5 3.5 0 1 0 7 0 a3.5 3.5 0 1 0 -7 0zM1179.5 231 a3.5 3.5 0 1 0 7 0 a3.5 3.5 0 1 0 -7 0zM1179.5 301 a3.5 3.5 0 1 0 7 0 a3.5 3.5 0 1 0 -7 0zM1179.5 259 a3.5 3.5 0 1 0 7 0 a3.5 3.5 0 1 0 -7 0z" fill="url(#SvgjsLinearGradient1334)"></path>
            <path d="M819 371L819 357L819 343L805 329L805 315" stroke="url(#SvgjsLinearGradient1334)" stroke-width="2.33"></path>
            <path d="M801.5 315 a3.5 3.5 0 1 0 7 0 a3.5 3.5 0 1 0 -7 0z" fill="url(#SvgjsLinearGradient1334)"></path>
            <path d="M1211 203L1197 189L1197 175M1169 357L1169 343M1211 217L1197 203M1197 287L1183 273M1169 371L1169 357L1183 343L1183 329L1197 315L1197 301L1197 287L1197 273L1197 259L1197 245L1211 231L1211 217L1211 203L1211 189L1211 175L1211 161" stroke="url(#SvgjsLinearGradient1334)" stroke-width="2.33"></path>
            <path d="M1207.5 161 a3.5 3.5 0 1 0 7 0 a3.5 3.5 0 1 0 -7 0zM1193.5 175 a3.5 3.5 0 1 0 7 0 a3.5 3.5 0 1 0 -7 0zM1165.5 343 a3.5 3.5 0 1 0 7 0 a3.5 3.5 0 1 0 -7 0zM1193.5 203 a3.5 3.5 0 1 0 7 0 a3.5 3.5 0 1 0 -7 0zM1179.5 273 a3.5 3.5 0 1 0 7 0 a3.5 3.5 0 1 0 -7 0z" fill="url(#SvgjsLinearGradient1334)"></path>
            <path d="M805 357L791 343M805 371L805 357L805 343L791 329L791 315L791 301L791 287L791 273L791 259L791 245L791 231" stroke="url(#SvgjsLinearGradient1334)" stroke-width="2.33"></path>
            <path d="M787.5 231 a3.5 3.5 0 1 0 7 0 a3.5 3.5 0 1 0 -7 0zM787.5 343 a3.5 3.5 0 1 0 7 0 a3.5 3.5 0 1 0 -7 0z" fill="url(#SvgjsLinearGradient1334)"></path>
            <path d="M1225 189L1239 175M1225 161L1239 147M1225 147L1211 133L1211 119M1183 371L1183 357L1197 343L1197 329L1211 315L1211 301L1211 287L1211 273L1211 259L1211 245L1225 231L1225 217L1225 203L1225 189L1225 175L1225 161L1225 147L1225 133L1225 119" stroke="url(#SvgjsLinearGradient1334)" stroke-width="2.33"></path>
            <path d="M1221.5 119 a3.5 3.5 0 1 0 7 0 a3.5 3.5 0 1 0 -7 0zM1235.5 175 a3.5 3.5 0 1 0 7 0 a3.5 3.5 0 1 0 -7 0zM1235.5 147 a3.5 3.5 0 1 0 7 0 a3.5 3.5 0 1 0 -7 0zM1207.5 119 a3.5 3.5 0 1 0 7 0 a3.5 3.5 0 1 0 -7 0z" fill="url(#SvgjsLinearGradient1334)"></path>
            <path d="M791 217L805 203L805 189L805 175L819 161L819 147M777 357L763 343L763 329M777 245L763 231L763 217L763 203M791 371L777 357L777 343L777 329L777 315L777 301L777 287L777 273L777 259L777 245L777 231L791 217L791 203" stroke="url(#SvgjsLinearGradient1334)" stroke-width="2.33"></path>
            <path d="M787.5 203 a3.5 3.5 0 1 0 7 0 a3.5 3.5 0 1 0 -7 0zM815.5 147 a3.5 3.5 0 1 0 7 0 a3.5 3.5 0 1 0 -7 0zM759.5 329 a3.5 3.5 0 1 0 7 0 a3.5 3.5 0 1 0 -7 0zM759.5 203 a3.5 3.5 0 1 0 7 0 a3.5 3.5 0 1 0 -7 0z" fill="url(#SvgjsLinearGradient1334)"></path>
            <path d="M1239 133L1253 119L1253 105L1253 91L1253 77L1253 63L1239 49L1239 35M1253 161L1267 147M1239 203L1239 189M1225 287L1239 273L1239 259M1239 105L1225 91L1225 77L1225 63M1197 371L1197 357L1211 343L1211 329L1225 315L1225 301L1225 287L1225 273L1225 259L1225 245L1239 231L1239 217L1239 203L1253 189L1253 175L1253 161L1253 147L1239 133L1239 119L1239 105L1239 91" stroke="url(#SvgjsLinearGradient1334)" stroke-width="2.33"></path>
            <path d="M1235.5 91 a3.5 3.5 0 1 0 7 0 a3.5 3.5 0 1 0 -7 0zM1235.5 35 a3.5 3.5 0 1 0 7 0 a3.5 3.5 0 1 0 -7 0zM1263.5 147 a3.5 3.5 0 1 0 7 0 a3.5 3.5 0 1 0 -7 0zM1235.5 189 a3.5 3.5 0 1 0 7 0 a3.5 3.5 0 1 0 -7 0zM1235.5 259 a3.5 3.5 0 1 0 7 0 a3.5 3.5 0 1 0 -7 0zM1221.5 63 a3.5 3.5 0 1 0 7 0 a3.5 3.5 0 1 0 -7 0z" fill="url(#SvgjsLinearGradient1334)"></path>
            <path d="M1225 343L1225 329M1211 371L1211 357L1225 343L1239 329L1239 315L1239 301" stroke="url(#SvgjsLinearGradient1334)" stroke-width="2.33"></path>
            <path d="M1235.5 301 a3.5 3.5 0 1 0 7 0 a3.5 3.5 0 1 0 -7 0zM1221.5 329 a3.5 3.5 0 1 0 7 0 a3.5 3.5 0 1 0 -7 0z" fill="url(#SvgjsLinearGradient1334)"></path>
            <path d="M749 329L749 315L749 301M763 371L749 357L749 343L749 329L763 315L763 301L763 287L763 273L763 259" stroke="url(#SvgjsLinearGradient1334)" stroke-width="2.33"></path>
            <path d="M759.5 259 a3.5 3.5 0 1 0 7 0 a3.5 3.5 0 1 0 -7 0zM745.5 301 a3.5 3.5 0 1 0 7 0 a3.5 3.5 0 1 0 -7 0z" fill="url(#SvgjsLinearGradient1334)"></path>
            <path d="M1225 371L1225 357L1239 343L1253 329L1253 315L1253 301L1253 287" stroke="url(#SvgjsLinearGradient1334)" stroke-width="2.33"></path>
            <path d="M1249.5 287 a3.5 3.5 0 1 0 7 0 a3.5 3.5 0 1 0 -7 0z" fill="url(#SvgjsLinearGradient1334)"></path>
            <path d="M1267 189L1281 175L1281 161L1281 147M1267 273L1281 259L1281 245L1281 231L1295 217M1267 287L1281 273M1239 371L1239 357L1253 343L1267 329L1267 315L1267 301L1267 287L1267 273L1267 259L1267 245L1253 231L1253 217L1253 203L1267 189L1267 175" stroke="url(#SvgjsLinearGradient1334)" stroke-width="2.33"></path>
            <path d="M1263.5 175 a3.5 3.5 0 1 0 7 0 a3.5 3.5 0 1 0 -7 0zM1277.5 147 a3.5 3.5 0 1 0 7 0 a3.5 3.5 0 1 0 -7 0zM1291.5 217 a3.5 3.5 0 1 0 7 0 a3.5 3.5 0 1 0 -7 0zM1277.5 273 a3.5 3.5 0 1 0 7 0 a3.5 3.5 0 1 0 -7 0z" fill="url(#SvgjsLinearGradient1334)"></path>
            <path d="M735 245L749 231L749 217L749 203M735 301L735 287L735 273L735 259M749 259L763 245M735 371L735 357L735 343L735 329L735 315L735 301L749 287L749 273L749 259L735 245L735 231L721 217L721 203L721 189" stroke="url(#SvgjsLinearGradient1334)" stroke-width="2.33"></path>
            <path d="M717.5 189 a3.5 3.5 0 1 0 7 0 a3.5 3.5 0 1 0 -7 0zM745.5 203 a3.5 3.5 0 1 0 7 0 a3.5 3.5 0 1 0 -7 0zM731.5 259 a3.5 3.5 0 1 0 7 0 a3.5 3.5 0 1 0 -7 0zM759.5 245 a3.5 3.5 0 1 0 7 0 a3.5 3.5 0 1 0 -7 0z" fill="url(#SvgjsLinearGradient1334)"></path>
            <path d="M1281 315L1281 301L1281 287M1253 371L1253 357L1267 343L1281 329L1281 315L1295 301L1295 287L1295 273L1295 259" stroke="url(#SvgjsLinearGradient1334)" stroke-width="2.33"></path>
            <path d="M1291.5 259 a3.5 3.5 0 1 0 7 0 a3.5 3.5 0 1 0 -7 0zM1277.5 287 a3.5 3.5 0 1 0 7 0 a3.5 3.5 0 1 0 -7 0z" fill="url(#SvgjsLinearGradient1334)"></path>
            <path d="M721 175L707 161L707 147M735 119L749 105L749 91L749 77L749 63M707 203L693 189L693 175L693 161L693 147L693 133M707 189L707 175M707 217L693 203M721 371L721 357L721 343L721 329L721 315L721 301L721 287L721 273L721 259L721 245L721 231L707 217L707 203L707 189L721 175L721 161L721 147L721 133L735 119L735 105L735 91L735 77L735 63" stroke="url(#SvgjsLinearGradient1334)" stroke-width="2.33"></path>
            <path d="M731.5 63 a3.5 3.5 0 1 0 7 0 a3.5 3.5 0 1 0 -7 0zM703.5 147 a3.5 3.5 0 1 0 7 0 a3.5 3.5 0 1 0 -7 0zM745.5 63 a3.5 3.5 0 1 0 7 0 a3.5 3.5 0 1 0 -7 0zM689.5 133 a3.5 3.5 0 1 0 7 0 a3.5 3.5 0 1 0 -7 0zM703.5 175 a3.5 3.5 0 1 0 7 0 a3.5 3.5 0 1 0 -7 0zM689.5 203 a3.5 3.5 0 1 0 7 0 a3.5 3.5 0 1 0 -7 0z" fill="url(#SvgjsLinearGradient1334)"></path>
            <path d="M1295 189L1309 175L1309 161L1309 147M1295 329L1295 315M1309 245L1295 231M1309 217L1309 203M1267 371L1267 357L1281 343L1295 329L1309 315L1309 301L1309 287L1309 273L1309 259L1309 245L1309 231L1309 217L1295 203L1295 189L1295 175L1295 161L1295 147L1295 133" stroke="url(#SvgjsLinearGradient1334)" stroke-width="2.33"></path>
            <path d="M1291.5 133 a3.5 3.5 0 1 0 7 0 a3.5 3.5 0 1 0 -7 0zM1305.5 147 a3.5 3.5 0 1 0 7 0 a3.5 3.5 0 1 0 -7 0zM1291.5 315 a3.5 3.5 0 1 0 7 0 a3.5 3.5 0 1 0 -7 0zM1291.5 231 a3.5 3.5 0 1 0 7 0 a3.5 3.5 0 1 0 -7 0zM1305.5 203 a3.5 3.5 0 1 0 7 0 a3.5 3.5 0 1 0 -7 0z" fill="url(#SvgjsLinearGradient1334)"></path>
            <path d="M707 273L707 259L707 245L707 231M707 287L693 273M707 371L707 357L707 343L707 329L707 315L707 301L707 287L707 273L693 259" stroke="url(#SvgjsLinearGradient1334)" stroke-width="2.33"></path>
            <path d="M689.5 259 a3.5 3.5 0 1 0 7 0 a3.5 3.5 0 1 0 -7 0zM703.5 231 a3.5 3.5 0 1 0 7 0 a3.5 3.5 0 1 0 -7 0zM689.5 273 a3.5 3.5 0 1 0 7 0 a3.5 3.5 0 1 0 -7 0z" fill="url(#SvgjsLinearGradient1334)"></path>
            <path d="M1323 245L1337 231M1323 189L1337 175M1323 147L1337 133L1337 119L1337 105M1323 203L1337 189L1351 175M1281 371L1281 357L1295 343L1309 329L1323 315L1323 301L1323 287L1323 273L1323 259L1323 245L1323 231L1323 217L1323 203L1323 189L1323 175L1323 161L1323 147L1323 133" stroke="url(#SvgjsLinearGradient1334)" stroke-width="2.33"></path>
            <path d="M1319.5 133 a3.5 3.5 0 1 0 7 0 a3.5 3.5 0 1 0 -7 0zM1333.5 231 a3.5 3.5 0 1 0 7 0 a3.5 3.5 0 1 0 -7 0zM1333.5 175 a3.5 3.5 0 1 0 7 0 a3.5 3.5 0 1 0 -7 0zM1333.5 105 a3.5 3.5 0 1 0 7 0 a3.5 3.5 0 1 0 -7 0zM1347.5 175 a3.5 3.5 0 1 0 7 0 a3.5 3.5 0 1 0 -7 0z" fill="url(#SvgjsLinearGradient1334)"></path>
            <path d="M693 315L679 301M679 175L665 161L665 147L665 133L651 119L651 105M651 63L665 49L665 35M665 245L679 231L679 217M651 49L637 35M693 301L693 287M693 371L693 357L693 343L693 329L693 315L693 301L679 287L679 273L679 259L665 245L665 231L665 217L665 203L679 189L679 175L679 161L679 147L679 133L665 119L665 105L665 91L651 77L651 63L651 49L651 35" stroke="url(#SvgjsLinearGradient1334)" stroke-width="2.33"></path>
            <path d="M647.5 35 a3.5 3.5 0 1 0 7 0 a3.5 3.5 0 1 0 -7 0zM675.5 301 a3.5 3.5 0 1 0 7 0 a3.5 3.5 0 1 0 -7 0zM647.5 105 a3.5 3.5 0 1 0 7 0 a3.5 3.5 0 1 0 -7 0zM661.5 35 a3.5 3.5 0 1 0 7 0 a3.5 3.5 0 1 0 -7 0zM675.5 217 a3.5 3.5 0 1 0 7 0 a3.5 3.5 0 1 0 -7 0zM633.5 35 a3.5 3.5 0 1 0 7 0 a3.5 3.5 0 1 0 -7 0zM689.5 287 a3.5 3.5 0 1 0 7 0 a3.5 3.5 0 1 0 -7 0z" fill="url(#SvgjsLinearGradient1334)"></path>
            <path d="M1295 371L1295 357L1309 343L1323 329" stroke="url(#SvgjsLinearGradient1334)" stroke-width="2.33"></path>
            <path d="M1319.5 329 a3.5 3.5 0 1 0 7 0 a3.5 3.5 0 1 0 -7 0z" fill="url(#SvgjsLinearGradient1334)"></path>
            <path d="M679 343L679 329L679 315M679 371L679 357L679 343L665 329L665 315L665 301L665 287L665 273L665 259L651 245L651 231L651 217" stroke="url(#SvgjsLinearGradient1334)" stroke-width="2.33"></path>
            <path d="M647.5 217 a3.5 3.5 0 1 0 7 0 a3.5 3.5 0 1 0 -7 0zM675.5 315 a3.5 3.5 0 1 0 7 0 a3.5 3.5 0 1 0 -7 0z" fill="url(#SvgjsLinearGradient1334)"></path>
            <path d="M1337 287L1351 273M1337 301L1351 287M1309 371L1309 357L1323 343L1337 329L1337 315L1337 301L1337 287L1337 273" stroke="url(#SvgjsLinearGradient1334)" stroke-width="2.33"></path>
            <path d="M1333.5 273 a3.5 3.5 0 1 0 7 0 a3.5 3.5 0 1 0 -7 0zM1347.5 273 a3.5 3.5 0 1 0 7 0 a3.5 3.5 0 1 0 -7 0zM1347.5 287 a3.5 3.5 0 1 0 7 0 a3.5 3.5 0 1 0 -7 0z" fill="url(#SvgjsLinearGradient1334)"></path>
            <path d="M637 203L651 189L651 175L651 161M637 133L623 119L623 105L623 91L623 77L623 63L623 49L623 35M637 161L623 147L623 133M651 273L651 259M637 147L651 133M665 371L665 357L665 343L651 329L651 315L651 301L651 287L651 273L637 259L637 245L637 231L637 217L637 203L637 189L637 175L637 161L637 147L637 133L637 119L637 105L637 91L637 77" stroke="url(#SvgjsLinearGradient1334)" stroke-width="2.33"></path>
            <path d="M633.5 77 a3.5 3.5 0 1 0 7 0 a3.5 3.5 0 1 0 -7 0zM647.5 161 a3.5 3.5 0 1 0 7 0 a3.5 3.5 0 1 0 -7 0zM619.5 35 a3.5 3.5 0 1 0 7 0 a3.5 3.5 0 1 0 -7 0zM619.5 133 a3.5 3.5 0 1 0 7 0 a3.5 3.5 0 1 0 -7 0zM647.5 259 a3.5 3.5 0 1 0 7 0 a3.5 3.5 0 1 0 -7 0zM647.5 133 a3.5 3.5 0 1 0 7 0 a3.5 3.5 0 1 0 -7 0z" fill="url(#SvgjsLinearGradient1334)"></path>
            <path d="M1323 371L1323 357L1337 343L1351 329L1351 315" stroke="url(#SvgjsLinearGradient1334)" stroke-width="2.33"></path>
            <path d="M1347.5 315 a3.5 3.5 0 1 0 7 0 a3.5 3.5 0 1 0 -7 0z" fill="url(#SvgjsLinearGradient1334)"></path>
            <path d="M651 371L651 357L651 343L637 329L637 315L637 301L637 287L637 273" stroke="url(#SvgjsLinearGradient1334)" stroke-width="2.33"></path>
            <path d="M633.5 273 a3.5 3.5 0 1 0 7 0 a3.5 3.5 0 1 0 -7 0z" fill="url(#SvgjsLinearGradient1334)"></path>
            <path d="M1379 259L1365 245L1365 231M1379 245L1393 231L1393 217L1393 203L1393 189L1393 175L1393 161M1379 175L1365 161L1365 147L1365 133M1379 203L1365 189L1365 175M1337 371L1337 357L1351 343L1365 329L1365 315L1365 301L1365 287L1365 273L1379 259L1379 245L1379 231L1379 217L1379 203L1379 189L1379 175L1379 161" stroke="url(#SvgjsLinearGradient1334)" stroke-width="2.33"></path>
            <path d="M1375.5 161 a3.5 3.5 0 1 0 7 0 a3.5 3.5 0 1 0 -7 0zM1361.5 231 a3.5 3.5 0 1 0 7 0 a3.5 3.5 0 1 0 -7 0zM1389.5 161 a3.5 3.5 0 1 0 7 0 a3.5 3.5 0 1 0 -7 0zM1361.5 133 a3.5 3.5 0 1 0 7 0 a3.5 3.5 0 1 0 -7 0zM1361.5 175 a3.5 3.5 0 1 0 7 0 a3.5 3.5 0 1 0 -7 0z" fill="url(#SvgjsLinearGradient1334)"></path>
            <path d="M637 371L637 357" stroke="url(#SvgjsLinearGradient1334)" stroke-width="2.33"></path>
            <path d="M633.5 357 a3.5 3.5 0 1 0 7 0 a3.5 3.5 0 1 0 -7 0z" fill="url(#SvgjsLinearGradient1334)"></path>
            <path d="M1351 371L1351 357L1365 343L1379 329" stroke="url(#SvgjsLinearGradient1334)" stroke-width="2.33"></path>
            <path d="M1375.5 329 a3.5 3.5 0 1 0 7 0 a3.5 3.5 0 1 0 -7 0z" fill="url(#SvgjsLinearGradient1334)"></path>
            <path d="M623 371L623 357L623 343L623 329L623 315L623 301L623 287L623 273L623 259L623 245L623 231L623 217L623 203L623 189L623 175" stroke="url(#SvgjsLinearGradient1334)" stroke-width="2.33"></path>
            <path d="M619.5 175 a3.5 3.5 0 1 0 7 0 a3.5 3.5 0 1 0 -7 0z" fill="url(#SvgjsLinearGradient1334)"></path>
            <path d="M1421 189L1407 175L1407 161L1407 147M1407 301L1393 287L1393 273M1407 315L1393 301L1379 287L1379 273M1407 259L1393 245M1365 371L1365 357L1379 343L1393 329L1407 315L1407 301L1407 287L1407 273L1407 259L1407 245L1407 231L1407 217L1421 203L1421 189L1421 175L1421 161" stroke="url(#SvgjsLinearGradient1334)" stroke-width="2.33"></path>
            <path d="M1417.5 161 a3.5 3.5 0 1 0 7 0 a3.5 3.5 0 1 0 -7 0zM1403.5 147 a3.5 3.5 0 1 0 7 0 a3.5 3.5 0 1 0 -7 0zM1389.5 273 a3.5 3.5 0 1 0 7 0 a3.5 3.5 0 1 0 -7 0zM1375.5 273 a3.5 3.5 0 1 0 7 0 a3.5 3.5 0 1 0 -7 0zM1389.5 245 a3.5 3.5 0 1 0 7 0 a3.5 3.5 0 1 0 -7 0z" fill="url(#SvgjsLinearGradient1334)"></path>
            <path d="M609 245L595 231L595 217L595 203M609 147L595 133L595 119L595 105L595 91L595 77L595 63M609 287L595 273M609 189L595 175L595 161L595 147L581 133M609 371L609 357L609 343L609 329L609 315L609 301L609 287L609 273L609 259L609 245L609 231L609 217L609 203L609 189L609 175L609 161L609 147L609 133L609 119" stroke="url(#SvgjsLinearGradient1334)" stroke-width="2.33"></path>
            <path d="M605.5 119 a3.5 3.5 0 1 0 7 0 a3.5 3.5 0 1 0 -7 0zM591.5 203 a3.5 3.5 0 1 0 7 0 a3.5 3.5 0 1 0 -7 0zM591.5 63 a3.5 3.5 0 1 0 7 0 a3.5 3.5 0 1 0 -7 0zM591.5 273 a3.5 3.5 0 1 0 7 0 a3.5 3.5 0 1 0 -7 0zM577.5 133 a3.5 3.5 0 1 0 7 0 a3.5 3.5 0 1 0 -7 0z" fill="url(#SvgjsLinearGradient1334)"></path>
            <path d="M1379 371L1379 357L1393 343L1407 329L1421 315L1421 301L1421 287L1421 273L1421 259L1421 245L1421 231L1421 217L1435 203L1435 189" stroke="url(#SvgjsLinearGradient1334)" stroke-width="2.33"></path>
            <path d="M1431.5 189 a3.5 3.5 0 1 0 7 0 a3.5 3.5 0 1 0 -7 0z" fill="url(#SvgjsLinearGradient1334)"></path>
            <path d="M581 287L581 273M581 231L567 217L567 203L567 189M595 301L595 287M595 371L595 357L595 343L595 329L595 315L595 301L581 287L567 273L567 259L581 245L581 231L581 217" stroke="url(#SvgjsLinearGradient1334)" stroke-width="2.33"></path>
            <path d="M577.5 217 a3.5 3.5 0 1 0 7 0 a3.5 3.5 0 1 0 -7 0zM577.5 273 a3.5 3.5 0 1 0 7 0 a3.5 3.5 0 1 0 -7 0zM563.5 189 a3.5 3.5 0 1 0 7 0 a3.5 3.5 0 1 0 -7 0zM591.5 287 a3.5 3.5 0 1 0 7 0 a3.5 3.5 0 1 0 -7 0z" fill="url(#SvgjsLinearGradient1334)"></path>
            <path d="M1393 371L1393 357L1407 343" stroke="url(#SvgjsLinearGradient1334)" stroke-width="2.33"></path>
            <path d="M1403.5 343 a3.5 3.5 0 1 0 7 0 a3.5 3.5 0 1 0 -7 0z" fill="url(#SvgjsLinearGradient1334)"></path>
            <path d="M511 189L525 175L525 161L525 147M511 105L525 91L525 77M553 259L553 245L553 231M581 357L567 343M525 217L525 203M511 133L525 119L525 105L539 91L539 77L539 63L539 49L539 35M581 371L581 357L581 343L581 329L581 315L581 301L567 287L553 273L553 259L539 245L539 231L525 217L511 203L511 189L511 175L511 161L511 147L511 133L511 119L511 105L511 91L511 77L511 63L511 49" stroke="url(#SvgjsLinearGradient1334)" stroke-width="2.33"></path>
            <path d="M507.5 49 a3.5 3.5 0 1 0 7 0 a3.5 3.5 0 1 0 -7 0zM521.5 147 a3.5 3.5 0 1 0 7 0 a3.5 3.5 0 1 0 -7 0zM521.5 77 a3.5 3.5 0 1 0 7 0 a3.5 3.5 0 1 0 -7 0zM549.5 231 a3.5 3.5 0 1 0 7 0 a3.5 3.5 0 1 0 -7 0zM563.5 343 a3.5 3.5 0 1 0 7 0 a3.5 3.5 0 1 0 -7 0zM521.5 203 a3.5 3.5 0 1 0 7 0 a3.5 3.5 0 1 0 -7 0zM535.5 35 a3.5 3.5 0 1 0 7 0 a3.5 3.5 0 1 0 -7 0z" fill="url(#SvgjsLinearGradient1334)"></path>
            <path d="M1449 63L1463 49M1449 175L1435 161L1435 147M1463 119L1449 105L1435 91M1435 287L1435 273L1435 259M1449 91L1463 77L1463 63L1477 49M1449 161L1449 147L1449 133M1407 371L1407 357L1421 343L1421 329L1435 315L1435 301L1435 287L1449 273L1449 259L1435 245L1435 231L1435 217L1449 203L1449 189L1449 175L1449 161L1463 147L1463 133L1463 119L1463 105L1449 91L1449 77L1449 63L1449 49L1449 35" stroke="url(#SvgjsLinearGradient1334)" stroke-width="2.33"></path>
            <path d="M1445.5 35 a3.5 3.5 0 1 0 7 0 a3.5 3.5 0 1 0 -7 0zM1459.5 49 a3.5 3.5 0 1 0 7 0 a3.5 3.5 0 1 0 -7 0zM1431.5 147 a3.5 3.5 0 1 0 7 0 a3.5 3.5 0 1 0 -7 0zM1431.5 91 a3.5 3.5 0 1 0 7 0 a3.5 3.5 0 1 0 -7 0zM1431.5 259 a3.5 3.5 0 1 0 7 0 a3.5 3.5 0 1 0 -7 0zM1473.5 49 a3.5 3.5 0 1 0 7 0 a3.5 3.5 0 1 0 -7 0zM1445.5 133 a3.5 3.5 0 1 0 7 0 a3.5 3.5 0 1 0 -7 0z" fill="url(#SvgjsLinearGradient1334)"></path>
            <path d="M497 133L483 119L483 105L483 91M553 329L567 315L567 301M497 147L483 133L469 119L469 105M539 273L525 259L511 245M525 245L525 231M567 371L553 357L553 343L553 329L553 315L553 301L553 287L539 273L539 259L525 245L511 231L511 217L497 203L497 189L497 175L497 161L497 147L497 133L497 119L497 105L497 91L497 77" stroke="url(#SvgjsLinearGradient1334)" stroke-width="2.33"></path>
            <path d="M493.5 77 a3.5 3.5 0 1 0 7 0 a3.5 3.5 0 1 0 -7 0zM479.5 91 a3.5 3.5 0 1 0 7 0 a3.5 3.5 0 1 0 -7 0zM563.5 301 a3.5 3.5 0 1 0 7 0 a3.5 3.5 0 1 0 -7 0zM465.5 105 a3.5 3.5 0 1 0 7 0 a3.5 3.5 0 1 0 -7 0zM507.5 245 a3.5 3.5 0 1 0 7 0 a3.5 3.5 0 1 0 -7 0zM521.5 231 a3.5 3.5 0 1 0 7 0 a3.5 3.5 0 1 0 -7 0z" fill="url(#SvgjsLinearGradient1334)"></path>
            <path d="M1449 231L1463 217M1463 245L1463 231M1463 203L1463 189L1463 175L1463 161M1421 371L1421 357L1435 343L1435 329L1449 315L1449 301L1449 287L1463 273L1463 259L1463 245L1449 231L1449 217L1463 203L1477 189" stroke="url(#SvgjsLinearGradient1334)" stroke-width="2.33"></path>
            <path d="M1473.5 189 a3.5 3.5 0 1 0 7 0 a3.5 3.5 0 1 0 -7 0zM1459.5 217 a3.5 3.5 0 1 0 7 0 a3.5 3.5 0 1 0 -7 0zM1459.5 231 a3.5 3.5 0 1 0 7 0 a3.5 3.5 0 1 0 -7 0zM1459.5 161 a3.5 3.5 0 1 0 7 0 a3.5 3.5 0 1 0 -7 0z" fill="url(#SvgjsLinearGradient1334)"></path>
            <path d="M1477 217L1491 203M1491 133L1477 119L1477 105L1477 91M1491 161L1477 147L1477 133M1491 175L1477 161M1435 371L1435 357L1449 343L1449 329L1463 315L1463 301L1463 287L1477 273L1477 259L1477 245L1477 231L1477 217L1477 203L1491 189L1491 175L1491 161L1491 147L1491 133L1491 119L1491 105L1491 91" stroke="url(#SvgjsLinearGradient1334)" stroke-width="2.33"></path>
            <path d="M1487.5 91 a3.5 3.5 0 1 0 7 0 a3.5 3.5 0 1 0 -7 0zM1487.5 203 a3.5 3.5 0 1 0 7 0 a3.5 3.5 0 1 0 -7 0zM1473.5 91 a3.5 3.5 0 1 0 7 0 a3.5 3.5 0 1 0 -7 0zM1473.5 133 a3.5 3.5 0 1 0 7 0 a3.5 3.5 0 1 0 -7 0zM1473.5 161 a3.5 3.5 0 1 0 7 0 a3.5 3.5 0 1 0 -7 0z" fill="url(#SvgjsLinearGradient1334)"></path>
            <path d="M539 371L539 357L539 343L539 329L539 315L539 301" stroke="url(#SvgjsLinearGradient1334)" stroke-width="2.33"></path>
            <path d="M535.5 301 a3.5 3.5 0 1 0 7 0 a3.5 3.5 0 1 0 -7 0z" fill="url(#SvgjsLinearGradient1334)"></path>
            <path d="M1505 119L1519 105L1519 91M1505 189L1519 175L1519 161M1505 91L1505 77L1505 63M1505 217L1519 203L1519 189L1533 175L1533 161M1505 133L1519 119L1533 105L1533 91M1449 371L1449 357L1463 343L1463 329L1477 315L1477 301L1491 287L1491 273L1491 259L1491 245L1491 231L1505 217L1505 203L1505 189L1505 175L1505 161L1505 147L1505 133L1505 119L1505 105L1505 91L1519 77L1519 63" stroke="url(#SvgjsLinearGradient1334)" stroke-width="2.33"></path>
            <path d="M1515.5 63 a3.5 3.5 0 1 0 7 0 a3.5 3.5 0 1 0 -7 0zM1515.5 91 a3.5 3.5 0 1 0 7 0 a3.5 3.5 0 1 0 -7 0zM1515.5 161 a3.5 3.5 0 1 0 7 0 a3.5 3.5 0 1 0 -7 0zM1501.5 63 a3.5 3.5 0 1 0 7 0 a3.5 3.5 0 1 0 -7 0zM1529.5 161 a3.5 3.5 0 1 0 7 0 a3.5 3.5 0 1 0 -7 0zM1529.5 91 a3.5 3.5 0 1 0 7 0 a3.5 3.5 0 1 0 -7 0z" fill="url(#SvgjsLinearGradient1334)"></path>
            <path d="M483 203L469 189M525 301L525 287M497 245L483 231L483 217M525 371L525 357L525 343L525 329L525 315L525 301L511 287L511 273L497 259L497 245L497 231L497 217L483 203L483 189L483 175" stroke="url(#SvgjsLinearGradient1334)" stroke-width="2.33"></path>
            <path d="M479.5 175 a3.5 3.5 0 1 0 7 0 a3.5 3.5 0 1 0 -7 0zM465.5 189 a3.5 3.5 0 1 0 7 0 a3.5 3.5 0 1 0 -7 0zM521.5 287 a3.5 3.5 0 1 0 7 0 a3.5 3.5 0 1 0 -7 0zM479.5 217 a3.5 3.5 0 1 0 7 0 a3.5 3.5 0 1 0 -7 0z" fill="url(#SvgjsLinearGradient1334)"></path>
            <path d="M1463 371L1463 357L1477 343L1477 329L1491 315" stroke="url(#SvgjsLinearGradient1334)" stroke-width="2.33"></path>
            <path d="M1487.5 315 a3.5 3.5 0 1 0 7 0 a3.5 3.5 0 1 0 -7 0z" fill="url(#SvgjsLinearGradient1334)"></path>
            <path d="M511 329L497 315M511 371L511 357L511 343L511 329L511 315L511 301" stroke="url(#SvgjsLinearGradient1334)" stroke-width="2.33"></path>
            <path d="M507.5 301 a3.5 3.5 0 1 0 7 0 a3.5 3.5 0 1 0 -7 0zM493.5 315 a3.5 3.5 0 1 0 7 0 a3.5 3.5 0 1 0 -7 0z" fill="url(#SvgjsLinearGradient1334)"></path>
            <path d="M1505 301L1519 287M1505 273L1505 259L1505 245M1491 343L1505 329L1519 315L1519 301L1533 287M1477 371L1477 357L1491 343L1491 329L1505 315L1505 301L1505 287L1505 273L1519 259L1519 245L1505 231" stroke="url(#SvgjsLinearGradient1334)" stroke-width="2.33"></path>
            <path d="M1501.5 231 a3.5 3.5 0 1 0 7 0 a3.5 3.5 0 1 0 -7 0zM1515.5 287 a3.5 3.5 0 1 0 7 0 a3.5 3.5 0 1 0 -7 0zM1501.5 245 a3.5 3.5 0 1 0 7 0 a3.5 3.5 0 1 0 -7 0zM1529.5 287 a3.5 3.5 0 1 0 7 0 a3.5 3.5 0 1 0 -7 0z" fill="url(#SvgjsLinearGradient1334)"></path>
            <path d="M497 357L483 343L483 329L483 315M497 371L497 357L497 343" stroke="url(#SvgjsLinearGradient1334)" stroke-width="2.33"></path>
            <path d="M493.5 343 a3.5 3.5 0 1 0 7 0 a3.5 3.5 0 1 0 -7 0zM479.5 315 a3.5 3.5 0 1 0 7 0 a3.5 3.5 0 1 0 -7 0z" fill="url(#SvgjsLinearGradient1334)"></path>
        </g>
    </g>
    <defs>
        <mask id="SvgjsMask1333">
            <rect width="1980" height="350" fill="#ffffff"></rect>
        </mask>
        <linearGradient x1="0" y1="175" x2="1980" y2="175" gradientUnits="userSpaceOnUse" id="SvgjsLinearGradient1334">
            <stop stop-color="rgba(46, 137, 173, 0.71)" offset="0"></stop>
            <stop stop-color="rgba(236, 227, 32, 0.39)" offset="1"></stop>
        </linearGradient>
        <mask id="SvgjsMask1335">
            <rect width="1980" height="350" fill="white"></rect>
            <path d="M957.25 63 a1.75 1.75 0 1 0 3.5 0 a1.75 1.75 0 1 0 -3.5 0zM957.25 133 a1.75 1.75 0 1 0 3.5 0 a1.75 1.75 0 1 0 -3.5 0zM957.25 231 a1.75 1.75 0 1 0 3.5 0 a1.75 1.75 0 1 0 -3.5 0zM985.25 343 a1.75 1.75 0 1 0 3.5 0 a1.75 1.75 0 1 0 -3.5 0zM971.25 63 a1.75 1.75 0 1 0 3.5 0 a1.75 1.75 0 1 0 -3.5 0zM985.25 301 a1.75 1.75 0 1 0 3.5 0 a1.75 1.75 0 1 0 -3.5 0z" fill="black"></path>
            <path d="M1013.25 35 a1.75 1.75 0 1 0 3.5 0 a1.75 1.75 0 1 0 -3.5 0zM985.25 77 a1.75 1.75 0 1 0 3.5 0 a1.75 1.75 0 1 0 -3.5 0zM999.25 133 a1.75 1.75 0 1 0 3.5 0 a1.75 1.75 0 1 0 -3.5 0zM999.25 287 a1.75 1.75 0 1 0 3.5 0 a1.75 1.75 0 1 0 -3.5 0zM1013.25 119 a1.75 1.75 0 1 0 3.5 0 a1.75 1.75 0 1 0 -3.5 0zM1027.25 133 a1.75 1.75 0 1 0 3.5 0 a1.75 1.75 0 1 0 -3.5 0zM999.25 77 a1.75 1.75 0 1 0 3.5 0 a1.75 1.75 0 1 0 -3.5 0z" fill="black"></path>
            <path d="M929.25 189 a1.75 1.75 0 1 0 3.5 0 a1.75 1.75 0 1 0 -3.5 0zM943.25 189 a1.75 1.75 0 1 0 3.5 0 a1.75 1.75 0 1 0 -3.5 0zM943.25 301 a1.75 1.75 0 1 0 3.5 0 a1.75 1.75 0 1 0 -3.5 0zM915.25 189 a1.75 1.75 0 1 0 3.5 0 a1.75 1.75 0 1 0 -3.5 0z" fill="black"></path>
            <path d="M999.25 189 a1.75 1.75 0 1 0 3.5 0 a1.75 1.75 0 1 0 -3.5 0zM1027.25 203 a1.75 1.75 0 1 0 3.5 0 a1.75 1.75 0 1 0 -3.5 0zM1013.25 161 a1.75 1.75 0 1 0 3.5 0 a1.75 1.75 0 1 0 -3.5 0zM1013.25 259 a1.75 1.75 0 1 0 3.5 0 a1.75 1.75 0 1 0 -3.5 0z" fill="black"></path>
            <path d="M915.25 63 a1.75 1.75 0 1 0 3.5 0 a1.75 1.75 0 1 0 -3.5 0zM887.25 161 a1.75 1.75 0 1 0 3.5 0 a1.75 1.75 0 1 0 -3.5 0zM915.25 217 a1.75 1.75 0 1 0 3.5 0 a1.75 1.75 0 1 0 -3.5 0zM915.25 273 a1.75 1.75 0 1 0 3.5 0 a1.75 1.75 0 1 0 -3.5 0zM873.25 175 a1.75 1.75 0 1 0 3.5 0 a1.75 1.75 0 1 0 -3.5 0zM929.25 105 a1.75 1.75 0 1 0 3.5 0 a1.75 1.75 0 1 0 -3.5 0z" fill="black"></path>
            <path d="M1027.25 301 a1.75 1.75 0 1 0 3.5 0 a1.75 1.75 0 1 0 -3.5 0z" fill="black"></path>
            <path d="M1041.25 259 a1.75 1.75 0 1 0 3.5 0 a1.75 1.75 0 1 0 -3.5 0zM1027.25 231 a1.75 1.75 0 1 0 3.5 0 a1.75 1.75 0 1 0 -3.5 0zM1055.25 245 a1.75 1.75 0 1 0 3.5 0 a1.75 1.75 0 1 0 -3.5 0z" fill="black"></path>
            <path d="M859.25 133 a1.75 1.75 0 1 0 3.5 0 a1.75 1.75 0 1 0 -3.5 0zM873.25 189 a1.75 1.75 0 1 0 3.5 0 a1.75 1.75 0 1 0 -3.5 0zM873.25 119 a1.75 1.75 0 1 0 3.5 0 a1.75 1.75 0 1 0 -3.5 0zM887.25 231 a1.75 1.75 0 1 0 3.5 0 a1.75 1.75 0 1 0 -3.5 0zM887.25 119 a1.75 1.75 0 1 0 3.5 0 a1.75 1.75 0 1 0 -3.5 0z" fill="black"></path>
            <path d="M1055.25 301 a1.75 1.75 0 1 0 3.5 0 a1.75 1.75 0 1 0 -3.5 0z" fill="black"></path>
            <path d="M901.25 315 a1.75 1.75 0 1 0 3.5 0 a1.75 1.75 0 1 0 -3.5 0z" fill="black"></path>
            <path d="M1083.25 231 a1.75 1.75 0 1 0 3.5 0 a1.75 1.75 0 1 0 -3.5 0zM1083.25 245 a1.75 1.75 0 1 0 3.5 0 a1.75 1.75 0 1 0 -3.5 0zM1055.25 273 a1.75 1.75 0 1 0 3.5 0 a1.75 1.75 0 1 0 -3.5 0zM1069.25 203 a1.75 1.75 0 1 0 3.5 0 a1.75 1.75 0 1 0 -3.5 0z" fill="black"></path>
            <path d="M831.25 77 a1.75 1.75 0 1 0 3.5 0 a1.75 1.75 0 1 0 -3.5 0zM817.25 91 a1.75 1.75 0 1 0 3.5 0 a1.75 1.75 0 1 0 -3.5 0zM831.25 133 a1.75 1.75 0 1 0 3.5 0 a1.75 1.75 0 1 0 -3.5 0zM845.25 77 a1.75 1.75 0 1 0 3.5 0 a1.75 1.75 0 1 0 -3.5 0zM831.25 161 a1.75 1.75 0 1 0 3.5 0 a1.75 1.75 0 1 0 -3.5 0zM887.25 329 a1.75 1.75 0 1 0 3.5 0 a1.75 1.75 0 1 0 -3.5 0z" fill="black"></path>
            <path d="M1083.25 315 a1.75 1.75 0 1 0 3.5 0 a1.75 1.75 0 1 0 -3.5 0z" fill="black"></path>
            <path d="M1097.25 161 a1.75 1.75 0 1 0 3.5 0 a1.75 1.75 0 1 0 -3.5 0zM1083.25 161 a1.75 1.75 0 1 0 3.5 0 a1.75 1.75 0 1 0 -3.5 0zM1111.25 203 a1.75 1.75 0 1 0 3.5 0 a1.75 1.75 0 1 0 -3.5 0zM1097.25 119 a1.75 1.75 0 1 0 3.5 0 a1.75 1.75 0 1 0 -3.5 0zM1111.25 231 a1.75 1.75 0 1 0 3.5 0 a1.75 1.75 0 1 0 -3.5 0z" fill="black"></path>
            <path d="M831.25 231 a1.75 1.75 0 1 0 3.5 0 a1.75 1.75 0 1 0 -3.5 0zM859.25 301 a1.75 1.75 0 1 0 3.5 0 a1.75 1.75 0 1 0 -3.5 0z" fill="black"></path>
            <path d="M1125.25 119 a1.75 1.75 0 1 0 3.5 0 a1.75 1.75 0 1 0 -3.5 0zM1139.25 189 a1.75 1.75 0 1 0 3.5 0 a1.75 1.75 0 1 0 -3.5 0zM1139.25 147 a1.75 1.75 0 1 0 3.5 0 a1.75 1.75 0 1 0 -3.5 0zM1111.25 245 a1.75 1.75 0 1 0 3.5 0 a1.75 1.75 0 1 0 -3.5 0zM1139.25 161 a1.75 1.75 0 1 0 3.5 0 a1.75 1.75 0 1 0 -3.5 0z" fill="black"></path>
            <path d="M817.25 245 a1.75 1.75 0 1 0 3.5 0 a1.75 1.75 0 1 0 -3.5 0zM859.25 315 a1.75 1.75 0 1 0 3.5 0 a1.75 1.75 0 1 0 -3.5 0z" fill="black"></path>
            <path d="M1139.25 105 a1.75 1.75 0 1 0 3.5 0 a1.75 1.75 0 1 0 -3.5 0zM1167.25 147 a1.75 1.75 0 1 0 3.5 0 a1.75 1.75 0 1 0 -3.5 0zM1181.25 189 a1.75 1.75 0 1 0 3.5 0 a1.75 1.75 0 1 0 -3.5 0zM1153.25 105 a1.75 1.75 0 1 0 3.5 0 a1.75 1.75 0 1 0 -3.5 0zM1181.25 203 a1.75 1.75 0 1 0 3.5 0 a1.75 1.75 0 1 0 -3.5 0zM1153.25 133 a1.75 1.75 0 1 0 3.5 0 a1.75 1.75 0 1 0 -3.5 0z" fill="black"></path>
            <path d="M817.25 273 a1.75 1.75 0 1 0 3.5 0 a1.75 1.75 0 1 0 -3.5 0zM845.25 329 a1.75 1.75 0 1 0 3.5 0 a1.75 1.75 0 1 0 -3.5 0z" fill="black"></path>
            <path d="M1167.25 245 a1.75 1.75 0 1 0 3.5 0 a1.75 1.75 0 1 0 -3.5 0z" fill="black"></path>
            <path d="M803.25 231 a1.75 1.75 0 1 0 3.5 0 a1.75 1.75 0 1 0 -3.5 0zM803.25 287 a1.75 1.75 0 1 0 3.5 0 a1.75 1.75 0 1 0 -3.5 0z" fill="black"></path>
            <path d="M1195.25 231 a1.75 1.75 0 1 0 3.5 0 a1.75 1.75 0 1 0 -3.5 0zM1181.25 231 a1.75 1.75 0 1 0 3.5 0 a1.75 1.75 0 1 0 -3.5 0zM1181.25 301 a1.75 1.75 0 1 0 3.5 0 a1.75 1.75 0 1 0 -3.5 0zM1181.25 259 a1.75 1.75 0 1 0 3.5 0 a1.75 1.75 0 1 0 -3.5 0z" fill="black"></path>
            <path d="M803.25 315 a1.75 1.75 0 1 0 3.5 0 a1.75 1.75 0 1 0 -3.5 0z" fill="black"></path>
            <path d="M1209.25 161 a1.75 1.75 0 1 0 3.5 0 a1.75 1.75 0 1 0 -3.5 0zM1195.25 175 a1.75 1.75 0 1 0 3.5 0 a1.75 1.75 0 1 0 -3.5 0zM1167.25 343 a1.75 1.75 0 1 0 3.5 0 a1.75 1.75 0 1 0 -3.5 0zM1195.25 203 a1.75 1.75 0 1 0 3.5 0 a1.75 1.75 0 1 0 -3.5 0zM1181.25 273 a1.75 1.75 0 1 0 3.5 0 a1.75 1.75 0 1 0 -3.5 0z" fill="black"></path>
            <path d="M789.25 231 a1.75 1.75 0 1 0 3.5 0 a1.75 1.75 0 1 0 -3.5 0zM789.25 343 a1.75 1.75 0 1 0 3.5 0 a1.75 1.75 0 1 0 -3.5 0z" fill="black"></path>
            <path d="M1223.25 119 a1.75 1.75 0 1 0 3.5 0 a1.75 1.75 0 1 0 -3.5 0zM1237.25 175 a1.75 1.75 0 1 0 3.5 0 a1.75 1.75 0 1 0 -3.5 0zM1237.25 147 a1.75 1.75 0 1 0 3.5 0 a1.75 1.75 0 1 0 -3.5 0zM1209.25 119 a1.75 1.75 0 1 0 3.5 0 a1.75 1.75 0 1 0 -3.5 0z" fill="black"></path>
            <path d="M789.25 203 a1.75 1.75 0 1 0 3.5 0 a1.75 1.75 0 1 0 -3.5 0zM817.25 147 a1.75 1.75 0 1 0 3.5 0 a1.75 1.75 0 1 0 -3.5 0zM761.25 329 a1.75 1.75 0 1 0 3.5 0 a1.75 1.75 0 1 0 -3.5 0zM761.25 203 a1.75 1.75 0 1 0 3.5 0 a1.75 1.75 0 1 0 -3.5 0z" fill="black"></path>
            <path d="M1237.25 91 a1.75 1.75 0 1 0 3.5 0 a1.75 1.75 0 1 0 -3.5 0zM1237.25 35 a1.75 1.75 0 1 0 3.5 0 a1.75 1.75 0 1 0 -3.5 0zM1265.25 147 a1.75 1.75 0 1 0 3.5 0 a1.75 1.75 0 1 0 -3.5 0zM1237.25 189 a1.75 1.75 0 1 0 3.5 0 a1.75 1.75 0 1 0 -3.5 0zM1237.25 259 a1.75 1.75 0 1 0 3.5 0 a1.75 1.75 0 1 0 -3.5 0zM1223.25 63 a1.75 1.75 0 1 0 3.5 0 a1.75 1.75 0 1 0 -3.5 0z" fill="black"></path>
            <path d="M1237.25 301 a1.75 1.75 0 1 0 3.5 0 a1.75 1.75 0 1 0 -3.5 0zM1223.25 329 a1.75 1.75 0 1 0 3.5 0 a1.75 1.75 0 1 0 -3.5 0z" fill="black"></path>
            <path d="M761.25 259 a1.75 1.75 0 1 0 3.5 0 a1.75 1.75 0 1 0 -3.5 0zM747.25 301 a1.75 1.75 0 1 0 3.5 0 a1.75 1.75 0 1 0 -3.5 0z" fill="black"></path>
            <path d="M1251.25 287 a1.75 1.75 0 1 0 3.5 0 a1.75 1.75 0 1 0 -3.5 0z" fill="black"></path>
            <path d="M1265.25 175 a1.75 1.75 0 1 0 3.5 0 a1.75 1.75 0 1 0 -3.5 0zM1279.25 147 a1.75 1.75 0 1 0 3.5 0 a1.75 1.75 0 1 0 -3.5 0zM1293.25 217 a1.75 1.75 0 1 0 3.5 0 a1.75 1.75 0 1 0 -3.5 0zM1279.25 273 a1.75 1.75 0 1 0 3.5 0 a1.75 1.75 0 1 0 -3.5 0z" fill="black"></path>
            <path d="M719.25 189 a1.75 1.75 0 1 0 3.5 0 a1.75 1.75 0 1 0 -3.5 0zM747.25 203 a1.75 1.75 0 1 0 3.5 0 a1.75 1.75 0 1 0 -3.5 0zM733.25 259 a1.75 1.75 0 1 0 3.5 0 a1.75 1.75 0 1 0 -3.5 0zM761.25 245 a1.75 1.75 0 1 0 3.5 0 a1.75 1.75 0 1 0 -3.5 0z" fill="black"></path>
            <path d="M1293.25 259 a1.75 1.75 0 1 0 3.5 0 a1.75 1.75 0 1 0 -3.5 0zM1279.25 287 a1.75 1.75 0 1 0 3.5 0 a1.75 1.75 0 1 0 -3.5 0z" fill="black"></path>
            <path d="M733.25 63 a1.75 1.75 0 1 0 3.5 0 a1.75 1.75 0 1 0 -3.5 0zM705.25 147 a1.75 1.75 0 1 0 3.5 0 a1.75 1.75 0 1 0 -3.5 0zM747.25 63 a1.75 1.75 0 1 0 3.5 0 a1.75 1.75 0 1 0 -3.5 0zM691.25 133 a1.75 1.75 0 1 0 3.5 0 a1.75 1.75 0 1 0 -3.5 0zM705.25 175 a1.75 1.75 0 1 0 3.5 0 a1.75 1.75 0 1 0 -3.5 0zM691.25 203 a1.75 1.75 0 1 0 3.5 0 a1.75 1.75 0 1 0 -3.5 0z" fill="black"></path>
            <path d="M1293.25 133 a1.75 1.75 0 1 0 3.5 0 a1.75 1.75 0 1 0 -3.5 0zM1307.25 147 a1.75 1.75 0 1 0 3.5 0 a1.75 1.75 0 1 0 -3.5 0zM1293.25 315 a1.75 1.75 0 1 0 3.5 0 a1.75 1.75 0 1 0 -3.5 0zM1293.25 231 a1.75 1.75 0 1 0 3.5 0 a1.75 1.75 0 1 0 -3.5 0zM1307.25 203 a1.75 1.75 0 1 0 3.5 0 a1.75 1.75 0 1 0 -3.5 0z" fill="black"></path>
            <path d="M691.25 259 a1.75 1.75 0 1 0 3.5 0 a1.75 1.75 0 1 0 -3.5 0zM705.25 231 a1.75 1.75 0 1 0 3.5 0 a1.75 1.75 0 1 0 -3.5 0zM691.25 273 a1.75 1.75 0 1 0 3.5 0 a1.75 1.75 0 1 0 -3.5 0z" fill="black"></path>
            <path d="M1321.25 133 a1.75 1.75 0 1 0 3.5 0 a1.75 1.75 0 1 0 -3.5 0zM1335.25 231 a1.75 1.75 0 1 0 3.5 0 a1.75 1.75 0 1 0 -3.5 0zM1335.25 175 a1.75 1.75 0 1 0 3.5 0 a1.75 1.75 0 1 0 -3.5 0zM1335.25 105 a1.75 1.75 0 1 0 3.5 0 a1.75 1.75 0 1 0 -3.5 0zM1349.25 175 a1.75 1.75 0 1 0 3.5 0 a1.75 1.75 0 1 0 -3.5 0z" fill="black"></path>
            <path d="M649.25 35 a1.75 1.75 0 1 0 3.5 0 a1.75 1.75 0 1 0 -3.5 0zM677.25 301 a1.75 1.75 0 1 0 3.5 0 a1.75 1.75 0 1 0 -3.5 0zM649.25 105 a1.75 1.75 0 1 0 3.5 0 a1.75 1.75 0 1 0 -3.5 0zM663.25 35 a1.75 1.75 0 1 0 3.5 0 a1.75 1.75 0 1 0 -3.5 0zM677.25 217 a1.75 1.75 0 1 0 3.5 0 a1.75 1.75 0 1 0 -3.5 0zM635.25 35 a1.75 1.75 0 1 0 3.5 0 a1.75 1.75 0 1 0 -3.5 0zM691.25 287 a1.75 1.75 0 1 0 3.5 0 a1.75 1.75 0 1 0 -3.5 0z" fill="black"></path>
            <path d="M1321.25 329 a1.75 1.75 0 1 0 3.5 0 a1.75 1.75 0 1 0 -3.5 0z" fill="black"></path>
            <path d="M649.25 217 a1.75 1.75 0 1 0 3.5 0 a1.75 1.75 0 1 0 -3.5 0zM677.25 315 a1.75 1.75 0 1 0 3.5 0 a1.75 1.75 0 1 0 -3.5 0z" fill="black"></path>
            <path d="M1335.25 273 a1.75 1.75 0 1 0 3.5 0 a1.75 1.75 0 1 0 -3.5 0zM1349.25 273 a1.75 1.75 0 1 0 3.5 0 a1.75 1.75 0 1 0 -3.5 0zM1349.25 287 a1.75 1.75 0 1 0 3.5 0 a1.75 1.75 0 1 0 -3.5 0z" fill="black"></path>
            <path d="M635.25 77 a1.75 1.75 0 1 0 3.5 0 a1.75 1.75 0 1 0 -3.5 0zM649.25 161 a1.75 1.75 0 1 0 3.5 0 a1.75 1.75 0 1 0 -3.5 0zM621.25 35 a1.75 1.75 0 1 0 3.5 0 a1.75 1.75 0 1 0 -3.5 0zM621.25 133 a1.75 1.75 0 1 0 3.5 0 a1.75 1.75 0 1 0 -3.5 0zM649.25 259 a1.75 1.75 0 1 0 3.5 0 a1.75 1.75 0 1 0 -3.5 0zM649.25 133 a1.75 1.75 0 1 0 3.5 0 a1.75 1.75 0 1 0 -3.5 0z" fill="black"></path>
            <path d="M1349.25 315 a1.75 1.75 0 1 0 3.5 0 a1.75 1.75 0 1 0 -3.5 0z" fill="black"></path>
            <path d="M635.25 273 a1.75 1.75 0 1 0 3.5 0 a1.75 1.75 0 1 0 -3.5 0z" fill="black"></path>
            <path d="M1377.25 161 a1.75 1.75 0 1 0 3.5 0 a1.75 1.75 0 1 0 -3.5 0zM1363.25 231 a1.75 1.75 0 1 0 3.5 0 a1.75 1.75 0 1 0 -3.5 0zM1391.25 161 a1.75 1.75 0 1 0 3.5 0 a1.75 1.75 0 1 0 -3.5 0zM1363.25 133 a1.75 1.75 0 1 0 3.5 0 a1.75 1.75 0 1 0 -3.5 0zM1363.25 175 a1.75 1.75 0 1 0 3.5 0 a1.75 1.75 0 1 0 -3.5 0z" fill="black"></path>
            <path d="M635.25 357 a1.75 1.75 0 1 0 3.5 0 a1.75 1.75 0 1 0 -3.5 0z" fill="black"></path>
            <path d="M1377.25 329 a1.75 1.75 0 1 0 3.5 0 a1.75 1.75 0 1 0 -3.5 0z" fill="black"></path>
            <path d="M621.25 175 a1.75 1.75 0 1 0 3.5 0 a1.75 1.75 0 1 0 -3.5 0z" fill="black"></path>
            <path d="M1419.25 161 a1.75 1.75 0 1 0 3.5 0 a1.75 1.75 0 1 0 -3.5 0zM1405.25 147 a1.75 1.75 0 1 0 3.5 0 a1.75 1.75 0 1 0 -3.5 0zM1391.25 273 a1.75 1.75 0 1 0 3.5 0 a1.75 1.75 0 1 0 -3.5 0zM1377.25 273 a1.75 1.75 0 1 0 3.5 0 a1.75 1.75 0 1 0 -3.5 0zM1391.25 245 a1.75 1.75 0 1 0 3.5 0 a1.75 1.75 0 1 0 -3.5 0z" fill="black"></path>
            <path d="M607.25 119 a1.75 1.75 0 1 0 3.5 0 a1.75 1.75 0 1 0 -3.5 0zM593.25 203 a1.75 1.75 0 1 0 3.5 0 a1.75 1.75 0 1 0 -3.5 0zM593.25 63 a1.75 1.75 0 1 0 3.5 0 a1.75 1.75 0 1 0 -3.5 0zM593.25 273 a1.75 1.75 0 1 0 3.5 0 a1.75 1.75 0 1 0 -3.5 0zM579.25 133 a1.75 1.75 0 1 0 3.5 0 a1.75 1.75 0 1 0 -3.5 0z" fill="black"></path>
            <path d="M1433.25 189 a1.75 1.75 0 1 0 3.5 0 a1.75 1.75 0 1 0 -3.5 0z" fill="black"></path>
            <path d="M579.25 217 a1.75 1.75 0 1 0 3.5 0 a1.75 1.75 0 1 0 -3.5 0zM579.25 273 a1.75 1.75 0 1 0 3.5 0 a1.75 1.75 0 1 0 -3.5 0zM565.25 189 a1.75 1.75 0 1 0 3.5 0 a1.75 1.75 0 1 0 -3.5 0zM593.25 287 a1.75 1.75 0 1 0 3.5 0 a1.75 1.75 0 1 0 -3.5 0z" fill="black"></path>
            <path d="M1405.25 343 a1.75 1.75 0 1 0 3.5 0 a1.75 1.75 0 1 0 -3.5 0z" fill="black"></path>
            <path d="M509.25 49 a1.75 1.75 0 1 0 3.5 0 a1.75 1.75 0 1 0 -3.5 0zM523.25 147 a1.75 1.75 0 1 0 3.5 0 a1.75 1.75 0 1 0 -3.5 0zM523.25 77 a1.75 1.75 0 1 0 3.5 0 a1.75 1.75 0 1 0 -3.5 0zM551.25 231 a1.75 1.75 0 1 0 3.5 0 a1.75 1.75 0 1 0 -3.5 0zM565.25 343 a1.75 1.75 0 1 0 3.5 0 a1.75 1.75 0 1 0 -3.5 0zM523.25 203 a1.75 1.75 0 1 0 3.5 0 a1.75 1.75 0 1 0 -3.5 0zM537.25 35 a1.75 1.75 0 1 0 3.5 0 a1.75 1.75 0 1 0 -3.5 0z" fill="black"></path>
            <path d="M1447.25 35 a1.75 1.75 0 1 0 3.5 0 a1.75 1.75 0 1 0 -3.5 0zM1461.25 49 a1.75 1.75 0 1 0 3.5 0 a1.75 1.75 0 1 0 -3.5 0zM1433.25 147 a1.75 1.75 0 1 0 3.5 0 a1.75 1.75 0 1 0 -3.5 0zM1433.25 91 a1.75 1.75 0 1 0 3.5 0 a1.75 1.75 0 1 0 -3.5 0zM1433.25 259 a1.75 1.75 0 1 0 3.5 0 a1.75 1.75 0 1 0 -3.5 0zM1475.25 49 a1.75 1.75 0 1 0 3.5 0 a1.75 1.75 0 1 0 -3.5 0zM1447.25 133 a1.75 1.75 0 1 0 3.5 0 a1.75 1.75 0 1 0 -3.5 0z" fill="black"></path>
            <path d="M495.25 77 a1.75 1.75 0 1 0 3.5 0 a1.75 1.75 0 1 0 -3.5 0zM481.25 91 a1.75 1.75 0 1 0 3.5 0 a1.75 1.75 0 1 0 -3.5 0zM565.25 301 a1.75 1.75 0 1 0 3.5 0 a1.75 1.75 0 1 0 -3.5 0zM467.25 105 a1.75 1.75 0 1 0 3.5 0 a1.75 1.75 0 1 0 -3.5 0zM509.25 245 a1.75 1.75 0 1 0 3.5 0 a1.75 1.75 0 1 0 -3.5 0zM523.25 231 a1.75 1.75 0 1 0 3.5 0 a1.75 1.75 0 1 0 -3.5 0z" fill="black"></path>
            <path d="M1475.25 189 a1.75 1.75 0 1 0 3.5 0 a1.75 1.75 0 1 0 -3.5 0zM1461.25 217 a1.75 1.75 0 1 0 3.5 0 a1.75 1.75 0 1 0 -3.5 0zM1461.25 231 a1.75 1.75 0 1 0 3.5 0 a1.75 1.75 0 1 0 -3.5 0zM1461.25 161 a1.75 1.75 0 1 0 3.5 0 a1.75 1.75 0 1 0 -3.5 0z" fill="black"></path>
            <path d="M1489.25 91 a1.75 1.75 0 1 0 3.5 0 a1.75 1.75 0 1 0 -3.5 0zM1489.25 203 a1.75 1.75 0 1 0 3.5 0 a1.75 1.75 0 1 0 -3.5 0zM1475.25 91 a1.75 1.75 0 1 0 3.5 0 a1.75 1.75 0 1 0 -3.5 0zM1475.25 133 a1.75 1.75 0 1 0 3.5 0 a1.75 1.75 0 1 0 -3.5 0zM1475.25 161 a1.75 1.75 0 1 0 3.5 0 a1.75 1.75 0 1 0 -3.5 0z" fill="black"></path>
            <path d="M537.25 301 a1.75 1.75 0 1 0 3.5 0 a1.75 1.75 0 1 0 -3.5 0z" fill="black"></path>
            <path d="M1517.25 63 a1.75 1.75 0 1 0 3.5 0 a1.75 1.75 0 1 0 -3.5 0zM1517.25 91 a1.75 1.75 0 1 0 3.5 0 a1.75 1.75 0 1 0 -3.5 0zM1517.25 161 a1.75 1.75 0 1 0 3.5 0 a1.75 1.75 0 1 0 -3.5 0zM1503.25 63 a1.75 1.75 0 1 0 3.5 0 a1.75 1.75 0 1 0 -3.5 0zM1531.25 161 a1.75 1.75 0 1 0 3.5 0 a1.75 1.75 0 1 0 -3.5 0zM1531.25 91 a1.75 1.75 0 1 0 3.5 0 a1.75 1.75 0 1 0 -3.5 0z" fill="black"></path>
            <path d="M481.25 175 a1.75 1.75 0 1 0 3.5 0 a1.75 1.75 0 1 0 -3.5 0zM467.25 189 a1.75 1.75 0 1 0 3.5 0 a1.75 1.75 0 1 0 -3.5 0zM523.25 287 a1.75 1.75 0 1 0 3.5 0 a1.75 1.75 0 1 0 -3.5 0zM481.25 217 a1.75 1.75 0 1 0 3.5 0 a1.75 1.75 0 1 0 -3.5 0z" fill="black"></path>
            <path d="M1489.25 315 a1.75 1.75 0 1 0 3.5 0 a1.75 1.75 0 1 0 -3.5 0z" fill="black"></path>
            <path d="M509.25 301 a1.75 1.75 0 1 0 3.5 0 a1.75 1.75 0 1 0 -3.5 0zM495.25 315 a1.75 1.75 0 1 0 3.5 0 a1.75 1.75 0 1 0 -3.5 0z" fill="black"></path>
            <path d="M1503.25 231 a1.75 1.75 0 1 0 3.5 0 a1.75 1.75 0 1 0 -3.5 0zM1517.25 287 a1.75 1.75 0 1 0 3.5 0 a1.75 1.75 0 1 0 -3.5 0zM1503.25 245 a1.75 1.75 0 1 0 3.5 0 a1.75 1.75 0 1 0 -3.5 0zM1531.25 287 a1.75 1.75 0 1 0 3.5 0 a1.75 1.75 0 1 0 -3.5 0z" fill="black"></path>
            <path d="M495.25 343 a1.75 1.75 0 1 0 3.5 0 a1.75 1.75 0 1 0 -3.5 0zM481.25 315 a1.75 1.75 0 1 0 3.5 0 a1.75 1.75 0 1 0 -3.5 0z" fill="black"></path>
        </mask>
    </defs>
</svg>